<svg width="33" height="26" viewBox="0 0 33 26" fill="none" xmlns="http://www.w3.org/2000/svg">
<path d="M30.25 20.8C31.7687 20.8 33 21.9641 33 23.4C33 24.8358 31.7687 26 30.25 26C29.4236 26 3.57638 26 2.75 26C1.23131 26 0 24.8358 0 23.4C0 21.9641 1.23131 20.8 2.75 20.8C3.57638 20.8 29.4236 20.8 30.25 20.8ZM30.25 10.4C31.7687 10.4 33 11.5641 33 13C33 14.4358 31.7687 15.6 30.25 15.6C29.4236 15.6 3.57638 15.6 2.75 15.6C1.23131 15.6 0 14.4358 0 13C0 11.5641 1.23131 10.4 2.75 10.4C3.57638 10.4 29.4236 10.4 30.25 10.4ZM30.25 0C31.7687 0 33 1.16415 33 2.6C33 4.03585 31.7687 5.2 30.25 5.2C29.4236 5.2 3.57638 5.2 2.75 5.2C1.23131 5.2 0 4.03585 0 2.6C0 1.16415 1.23131 0 2.75 0C3.57638 0 29.4236 0 30.25 0Z" fill="black"/>
</svg>
