<svg width="38" height="38" viewBox="0 0 38 38" fill="none" xmlns="http://www.w3.org/2000/svg">
<path d="M3.88884 0.333496C2.97951 0.333496 2.06828 0.680941 1.37495 1.37516C-0.013493 2.76361 -0.013493 5.0145 1.37495 6.40294L13.9722 19.0002L1.37495 31.5974C-0.013493 32.9858 -0.013493 35.2367 1.37495 36.6252C2.06828 37.3185 2.97951 37.6668 3.88884 37.6668C4.79817 37.6668 5.7094 37.3194 6.40273 36.6252L18.9999 24.0279L31.5972 36.6252C32.9838 38.0136 35.2374 38.0136 36.625 36.6252C38.0143 35.2358 38.0143 32.9867 36.625 31.5974L24.0277 19.0002L36.625 6.40294C38.0134 5.0145 38.0134 2.76361 36.625 1.37516C35.2383 -0.0123928 32.9838 -0.0132817 31.5972 1.37516L18.9999 13.9724L6.40273 1.37516C5.7094 0.681829 4.79817 0.333496 3.88884 0.333496Z" fill="white"/>
</svg>
