<svg width="222" height="54" viewBox="0 0 222 54" fill="none" xmlns="http://www.w3.org/2000/svg">
<path fill-rule="evenodd" clip-rule="evenodd" d="M117.302 0C115.271 0 113.625 1.64636 113.625 3.67725V13.2947C113.625 15.3255 115.271 16.9719 117.302 16.9719C119.333 16.9719 120.979 15.3255 120.979 13.2947V3.67725C120.979 1.64636 119.333 0 117.302 0ZM112.493 8.07061C112.493 6.21898 110.783 4.82883 109.043 5.46416C99.5029 8.94923 92.6925 18.1054 92.6925 28.8522C92.6925 42.5998 103.837 53.7444 117.585 53.7444C131.332 53.7444 142.477 42.5998 142.477 28.8522C142.477 17.8679 135.362 8.54537 125.489 5.2415C123.766 4.66488 122.11 6.04535 122.11 7.86228C122.11 9.20606 123.041 10.3531 124.3 10.8223C131.612 13.5467 136.819 20.5913 136.819 28.8523C136.819 39.4754 128.208 48.0871 117.585 48.0871C106.962 48.0871 98.3498 39.4754 98.3498 28.8523C98.3498 20.7756 103.328 13.8616 110.383 11.011C111.603 10.5181 112.493 9.3863 112.493 8.07061ZM12.93 22.82C11.87 21.68 10.38 21.11 8.46 21.11C6.82 21.11 5.36 21.49 4.08 22.25C2.8 23.01 1.8 24.07 1.08 25.43C0.36 26.77 0 28.29 0 29.99C0 32.57 0.67 34.61 2.01 36.11C3.35 37.61 5.24 38.37 7.68 38.39C8.88 38.39 10.09 38.23 11.31 37.91C12.53 37.57 13.46 37.12 14.1 36.56L13.47 35.12C12.95 35.38 12.27 35.6 11.43 35.78C10.59 35.94 9.8 36.02 9.06 36.02C7.38 36.02 6.08 35.5 5.16 34.46C4.26 33.42 3.79 31.97 3.75 30.11H14.34C14.48 29.33 14.55 28.5 14.55 27.62C14.55 25.56 14.01 23.96 12.93 22.82ZM5.04 24.23C5.76 23.33 6.67 22.88 7.77 22.88C8.77 22.88 9.47 23.26 9.87 24.02C10.51 24.62 10.83 25.66 10.83 27.14C10.83 27.58 10.82 27.91 10.8 28.13H3.78C3.92 26.43 4.34 25.13 5.04 24.23ZM19.5359 17.03V36.14L17.3159 36.47V38H25.8359V36.47L23.2259 36.11V14.48L22.5359 14.18L17.3459 14.81V16.4L19.5359 17.03ZM40.5863 22.82C39.5263 21.68 38.0363 21.11 36.1162 21.11C34.4762 21.11 33.0163 21.49 31.7362 22.25C30.4563 23.01 29.4563 24.07 28.7362 25.43C28.0163 26.77 27.6562 28.29 27.6562 29.99C27.6562 32.57 28.3263 34.61 29.6663 36.11C31.0063 37.61 32.8963 38.37 35.3363 38.39C36.5363 38.39 37.7463 38.23 38.9663 37.91C40.1863 37.57 41.1162 37.12 41.7562 36.56L41.1263 35.12C40.6063 35.38 39.9263 35.6 39.0863 35.78C38.2463 35.94 37.4562 36.02 36.7163 36.02C35.0363 36.02 33.7363 35.5 32.8162 34.46C31.9163 33.42 31.4463 31.97 31.4062 30.11H41.9963C42.1362 29.33 42.2063 28.5 42.2063 27.62C42.2063 25.56 41.6663 23.96 40.5863 22.82ZM32.6963 24.23C33.4163 23.33 34.3263 22.88 35.4263 22.88C36.4263 22.88 37.1263 23.26 37.5263 24.02C38.1663 24.62 38.4863 25.66 38.4863 27.14C38.4863 27.58 38.4762 27.91 38.4562 28.13H31.4363C31.5763 26.43 31.9963 25.13 32.6963 24.23ZM56.0421 21.32C55.1821 21.18 54.3421 21.13 53.5221 21.17C51.8821 21.21 50.4121 21.6 49.1121 22.34C47.8321 23.08 46.8221 24.12 46.0821 25.46C45.3421 26.78 44.9721 28.32 44.9721 30.08C44.9721 31.68 45.2621 33.11 45.8421 34.37C46.4421 35.61 47.3021 36.58 48.4221 37.28C49.5421 37.98 50.8721 38.33 52.4121 38.33C53.6721 38.33 54.8421 38.18 55.9221 37.88C57.0221 37.56 57.8921 37.12 58.5321 36.56L57.9021 35.09C57.5021 35.35 56.9021 35.57 56.1021 35.75C55.3021 35.91 54.5221 35.99 53.7621 35.99C52.8421 35.99 51.9921 35.73 51.2121 35.21C50.4321 34.69 49.8021 33.91 49.3221 32.87C48.8621 31.83 48.6321 30.57 48.6321 29.09C48.6321 27.25 49.0321 25.79 49.8321 24.71C50.6521 23.63 51.7121 23.09 53.0121 23.09C53.9921 23.09 54.7321 23.28 55.2321 23.66L56.1321 25.85H57.9921V21.89C57.5721 21.65 56.9221 21.46 56.0421 21.32ZM71.2038 21.62H66.2838V17.69H64.4838C63.9638 19.47 63.5538 20.62 63.2538 21.14C63.0138 21.52 62.7338 21.78 62.4138 21.92C62.1138 22.04 61.4938 22.22 60.5538 22.46V23.75H62.7738V33.74C62.7738 35.34 63.0638 36.51 63.6438 37.25C64.2238 37.99 65.1538 38.36 66.4338 38.36C67.3338 38.36 68.2738 38.22 69.2538 37.94C70.2538 37.64 71.0038 37.24 71.5038 36.74L70.9038 35.3C70.6638 35.46 70.2338 35.61 69.6138 35.75C69.0138 35.89 68.5038 35.96 68.0838 35.96C67.5438 35.96 67.1538 35.79 66.9138 35.45C66.6938 35.09 66.5438 34.55 66.4638 33.83C66.4038 33.11 66.3738 31.98 66.3738 30.44V23.75H71.2038V21.62ZM76.053 25.07V36.14L73.893 36.47V38H83.6431V36.47L79.773 36.08V25.25C80.593 24.71 81.623 24.44 82.863 24.44C83.863 24.44 84.723 24.62 85.443 24.98V21.38C85.223 21.3 84.733 21.26 83.973 21.26C83.133 21.26 82.2131 21.56 81.2131 22.16C80.233 22.74 79.583 23.36 79.263 24.02V21.53L78.423 21.26L73.983 22.58V23.84L76.053 25.07ZM156.9 17.18V35.99L153.39 36.44V38H164.22V36.44L160.59 35.96V17.18L165.33 17.51L166.23 20.45L167.76 20.27V15.26H149.58L149.22 20.3L151.02 20.24L152.04 17.54L156.9 17.18ZM182.5 22.82C181.44 21.68 179.95 21.11 178.03 21.11C176.39 21.11 174.93 21.49 173.65 22.25C172.37 23.01 171.37 24.07 170.65 25.43C169.93 26.77 169.57 28.29 169.57 29.99C169.57 32.57 170.24 34.61 171.58 36.11C172.92 37.61 174.81 38.37 177.25 38.39C178.45 38.39 179.66 38.23 180.88 37.91C182.1 37.57 183.03 37.12 183.67 36.56L183.04 35.12C182.52 35.38 181.84 35.6 181 35.78C180.16 35.94 179.37 36.02 178.63 36.02C176.95 36.02 175.65 35.5 174.73 34.46C173.83 33.42 173.36 31.97 173.32 30.11H183.91C184.05 29.33 184.12 28.5 184.12 27.62C184.12 25.56 183.58 23.96 182.5 22.82ZM174.61 24.23C175.33 23.33 176.24 22.88 177.34 22.88C178.34 22.88 179.04 23.26 179.44 24.02C180.08 24.62 180.4 25.66 180.4 27.14C180.4 27.58 180.39 27.91 180.37 28.13H173.35C173.49 26.43 173.91 25.13 174.61 24.23ZM197.956 21.32C197.096 21.18 196.256 21.13 195.436 21.17C193.796 21.21 192.326 21.6 191.026 22.34C189.746 23.08 188.736 24.12 187.996 25.46C187.256 26.78 186.886 28.32 186.886 30.08C186.886 31.68 187.176 33.11 187.756 34.37C188.356 35.61 189.216 36.58 190.336 37.28C191.456 37.98 192.786 38.33 194.326 38.33C195.586 38.33 196.756 38.18 197.836 37.88C198.936 37.56 199.806 37.12 200.446 36.56L199.816 35.09C199.416 35.35 198.816 35.57 198.016 35.75C197.216 35.91 196.436 35.99 195.676 35.99C194.756 35.99 193.906 35.73 193.126 35.21C192.346 34.69 191.716 33.91 191.236 32.87C190.776 31.83 190.546 30.57 190.546 29.09C190.546 27.25 190.946 25.79 191.746 24.71C192.566 23.63 193.626 23.09 194.926 23.09C195.906 23.09 196.646 23.28 197.146 23.66L198.046 25.85H199.906V21.89C199.486 21.65 198.836 21.46 197.956 21.32ZM204.928 17.03V36.14L202.768 36.47V38H210.478V36.47L208.618 36.14V24.8C209.558 24.12 210.708 23.78 212.068 23.78C213.028 23.78 213.738 24.02 214.198 24.5C214.658 24.96 214.948 25.62 215.068 26.48C215.188 27.32 215.248 28.52 215.248 30.08V36.14L212.908 36.47V38H221.038V36.47L218.938 36.14V29C218.958 27.16 218.838 25.69 218.578 24.59C218.318 23.49 217.828 22.66 217.108 22.1C216.408 21.54 215.388 21.26 214.048 21.26C213.148 21.26 212.188 21.45 211.168 21.83C210.148 22.19 209.238 22.71 208.438 23.39L208.588 21.2L208.618 14.48L207.868 14.18L202.588 14.81V16.4L204.928 17.03Z" fill="#20252D"/>
</svg>
