<svg width="96" height="134" viewBox="0 0 96 134" fill="none" xmlns="http://www.w3.org/2000/svg">
<path fill-rule="evenodd" clip-rule="evenodd" d="M59.2264 34.4415C56.1225 37.6754 51.9855 39.6489 47.4429 39.6489C42.4555 39.6489 37.957 37.2699 34.7779 33.456C33.8083 43.3615 26.417 51.0639 17.4429 51.0639C7.80943 51.0639 0 42.1882 0 31.2395C0 20.2907 7.80943 11.415 17.4429 11.415C22.4302 11.415 26.9288 13.794 30.1078 17.6079C31.0774 7.70246 38.4687 0 47.4429 0C56.1171 0 63.3125 7.19624 64.6594 16.6224C67.7632 13.3886 71.9003 11.415 76.4429 11.415C86.0763 11.415 93.8857 20.2907 93.8857 31.2395C93.8857 42.1882 86.0763 51.0639 76.4429 51.0639C67.7686 51.0639 60.5732 43.8677 59.2264 34.4415ZM58.3448 20.2292C58.3448 27.3794 53.3012 33.1757 47.0796 33.1757C40.858 33.1757 35.8145 27.3794 35.8145 20.2292C35.8145 13.079 40.858 7.28257 47.0796 7.28257C53.3012 7.28257 58.3448 13.079 58.3448 20.2292ZM40 42.3706C34.4772 42.3706 30 46.8478 30 52.3706V54.2434C29.053 53.9459 28.0452 53.7856 27 53.7856H10C4.47715 53.7856 0 58.2627 0 63.7856V92.9011C0 97.1061 2.59542 100.705 6.2717 102.183C5.63977 103.494 5.28564 104.965 5.28564 106.518V124C5.28564 129.523 9.76279 134 15.2856 134H20.6571C26.1799 134 30.6571 129.523 30.6571 124V106.518C30.6571 105.089 30.3571 103.729 29.8165 102.499C32.0724 101.838 33.9978 100.403 35.2856 98.5018V112.585C35.2856 118.108 39.7628 122.585 45.2856 122.585H50.6571C56.1799 122.585 60.6571 118.108 60.6571 112.585V98.4163C61.7702 100.097 63.3775 101.421 65.2717 102.183C64.6398 103.494 64.2856 104.965 64.2856 106.518V124C64.2856 129.523 68.7628 134 74.2856 134H79.6571C85.1799 134 89.6571 129.523 89.6571 124V106.518C89.6571 105.089 89.3571 103.729 88.8165 102.499C92.9681 101.283 96 97.446 96 92.9011V63.7856C96 58.2627 91.5228 53.7856 86 53.7856H69C68.3151 53.7856 67.6462 53.8544 67 53.9856V52.3706C67 46.8478 62.5228 42.3706 57 42.3706H40ZM64.9895 87.5011C66.2517 85.8272 67 83.7441 67 81.4861V64.8693C68.8343 62.6638 71.5993 61.2596 74.6921 61.2596H79.9518C85.4746 61.2596 89.9518 65.7368 89.9518 71.2596V85.0711C89.9518 90.5939 85.4746 95.0711 79.9518 95.0711H74.6921C70.0074 95.0711 66.0751 91.8496 64.9895 87.5011ZM60.7945 58.0684C59.9563 53.3929 55.8684 49.8447 50.9518 49.8447H45.6921C40.4833 49.8447 36.2046 53.8273 35.7349 58.9135C36.5407 60.3551 37 62.0167 37 63.7856V78.604C38.7215 81.6217 41.9692 83.6561 45.6921 83.6561H50.9518C54.2519 83.6561 57.1787 82.0575 59 79.5924V63.7856C59 61.6596 59.6634 59.6887 60.7945 58.0684ZM20.9518 61.2596C24.9497 61.2596 28.3996 63.6057 30 66.9963V81.4861C30 82.9944 30.3339 84.4247 30.9319 85.7071C30.6038 90.9336 26.261 95.0711 20.9518 95.0711H15.6921C10.1693 95.0711 5.69214 90.5939 5.69214 85.0711V71.2597C5.69214 65.7368 10.1693 61.2596 15.6921 61.2596H20.9518ZM39.1887 99.4676C39.1887 95.8789 41.3715 92.8 44.4818 91.4861H51.2165C54.3269 92.8 56.5096 95.8789 56.5096 99.4675V107.949C56.5096 112.732 52.6322 116.61 47.8492 116.61C43.0661 116.61 39.1887 112.732 39.1887 107.949V99.4676ZM28.3448 31.6441C28.3448 38.7943 23.3012 44.5907 17.0796 44.5907C10.858 44.5907 5.81445 38.7943 5.81445 31.6441C5.81445 24.4939 10.858 18.6975 17.0796 18.6975C23.3012 18.6975 28.3448 24.4939 28.3448 31.6441ZM9.18872 110.882C9.18872 107.294 11.3714 104.215 14.4816 102.901H21.2167C24.3269 104.215 26.5096 107.294 26.5096 110.882V119.364C26.5096 124.147 22.6322 128.025 17.8492 128.025C13.0661 128.025 9.18872 124.147 9.18872 119.364V110.882ZM76.0796 44.5907C82.3012 44.5907 87.3448 38.7943 87.3448 31.6441C87.3448 24.4939 82.3012 18.6975 76.0796 18.6975C69.858 18.6975 64.8145 24.4939 64.8145 31.6441C64.8145 38.7943 69.858 44.5907 76.0796 44.5907ZM73.4816 102.901C70.3714 104.215 68.1887 107.294 68.1887 110.882V119.364C68.1887 124.147 72.0661 128.025 76.8492 128.025C81.6322 128.025 85.5096 124.147 85.5096 119.364V110.882C85.5096 107.294 83.3269 104.215 80.2167 102.901H73.4816Z" fill="#304972"/>
</svg>
