<svg width="45" height="134" viewBox="0 0 45 134" fill="none" xmlns="http://www.w3.org/2000/svg">
<path fill-rule="evenodd" clip-rule="evenodd" d="M42.4286 21.7002C42.4286 33.6606 32.9306 43.3564 21.2143 43.3564C9.49796 43.3564 0 33.6606 0 21.7002C0 9.73978 9.49796 0.0439453 21.2143 0.0439453C32.9306 0.0439453 42.4286 9.73978 42.4286 21.7002ZM34.4732 22.1422C34.4732 29.9531 28.3391 36.2851 20.7723 36.2851C13.2055 36.2851 7.07143 29.9531 7.07143 22.1422C7.07143 14.3313 13.2055 7.99934 20.7723 7.99934C28.3391 7.99934 34.4732 14.3313 34.4732 22.1422ZM10 46.3297C4.47715 46.3297 0 50.8068 0 56.3297V89.9835C0 94.4785 2.96576 98.2808 7.04725 99.5404C6.64714 100.622 6.42857 101.791 6.42857 103.011V123.956C6.42857 129.479 10.9057 133.956 16.4286 133.956H27.2857C32.8086 133.956 37.2857 129.479 37.2857 123.956V103.011C37.2857 101.898 37.1039 100.828 36.7683 99.8276C41.4477 98.9927 45 94.9029 45 89.9835V56.3297C45 50.8068 40.5228 46.3297 35 46.3297H10ZM11.1757 109.242C11.1757 105.059 13.7437 101.476 17.389 99.9835H26.0284C29.6737 101.476 32.2416 105.059 32.2416 109.242V117.428C32.2416 122.951 27.7645 127.428 22.2416 127.428H21.1757C15.6529 127.428 11.1757 122.951 11.1757 117.428V109.242ZM16.923 54.4944C11.4001 54.4944 6.92296 58.9715 6.92296 64.4944V81.43C6.92296 86.9528 11.4001 91.43 16.923 91.43H27.6441C33.167 91.43 37.6441 86.9528 37.6441 81.43V64.4944C37.6441 58.9715 33.167 54.4944 27.6441 54.4944H16.923Z" fill="#304972"/>
</svg>
