<svg width="109" height="126" viewBox="0 0 109 126" fill="none" xmlns="http://www.w3.org/2000/svg">
<path fill-rule="evenodd" clip-rule="evenodd" d="M100 50.176C100 77.7903 77.6142 100.176 50 100.176C22.3858 100.176 0 77.7903 0 50.176C0 22.5618 22.3858 0.176025 50 0.176025C77.6142 0.176025 100 22.5618 100 50.176ZM90 50.176C90 51.6468 89.9206 53.099 89.7659 54.5287L79.5073 47.3455L80.3014 45.4259L85.7592 32.2323C88.4724 37.6288 90 43.724 90 50.176ZM82.6695 73.262C85.4755 69.2984 87.5784 64.8017 88.7964 59.9537L77.5494 52.0785L72.5186 64.2401C72.3156 64.7307 72.0822 65.2066 71.8201 65.6651L82.6695 73.262ZM79.5244 77.1636L68.5357 69.4693L57.1133 79.7699L66.7441 86.5134C71.6114 84.2669 75.9506 81.0712 79.5244 77.1636ZM64.333 66.5265L52.9106 76.8271L41.6711 68.9571L50.4829 56.8286L64.333 66.5265ZM49.1004 80.263L38.7317 73.0028L30.1005 84.8827C33.2047 86.6664 36.571 88.0456 40.1273 88.9484L39.8321 88.621L49.1004 80.263ZM46.3866 53.9603L37.5747 66.0888L25.7254 57.7918L26.4041 56.3009L32.0414 43.9157L46.3866 53.9603ZM34.6353 70.1345L23.6186 62.4205L18.1662 74.3996C20.3875 77.3143 23 79.9148 25.9253 82.1227L34.6353 70.1345ZM21.8533 54.2296L21.5596 54.8749L10.1343 46.8748C10.58 41.4193 12.1204 36.2736 14.5355 31.6579L27.8755 40.9987L21.8533 54.2296ZM19.4528 59.5035L10.0948 52.951C10.5021 58.8964 12.2087 64.4847 14.9327 69.4342L19.4528 59.5035ZM61.05 88.6302L53.3032 83.2058L45.8138 89.9596C47.1897 90.1027 48.5863 90.176 50 90.176C53.8332 90.176 57.5404 89.6369 61.05 88.6302ZM67.6954 62.777C67.7678 62.6301 67.8355 62.4807 67.8983 62.3288L73.3538 49.1407L61.897 41.1185L53.4223 52.7829L67.6954 62.777ZM49.3259 49.9146L57.8006 38.2502L44.3444 28.8281L36.8396 35.1351C35.9849 35.8535 35.3013 36.7536 34.8387 37.7698L34.1482 39.287L49.3259 49.9146ZM29.9823 36.37L30.288 35.6984C31.0589 34.0047 32.1982 32.5046 33.6228 31.3073L40.105 25.8596L27.5477 17.0669C23.4759 19.8336 19.9411 23.3317 17.1324 27.3724L29.9823 36.37ZM75.6811 43.5146L75.3117 44.4077L64.8364 37.0728L76.8549 20.5308C78.9708 22.4487 80.8805 24.5901 82.5468 26.9176L75.6811 43.5146ZM72.9443 17.4067L60.74 34.2045L48.3064 25.4984L63.6817 12.5771C66.9958 13.7833 70.1054 15.4152 72.9443 17.4067ZM57.8507 10.9462L44.067 22.53L32.304 14.2934C37.639 11.6573 43.6465 10.176 50 10.176C52.687 10.176 55.3122 10.441 57.8507 10.9462ZM12.8002 99.3693C23.8598 105.419 34.6692 108.565 44.8131 109.377L45.1711 119.626L39.5547 119.528L39.45 125.527L56.4474 125.824L56.5521 119.825L51.1784 119.731L50.8242 109.588C65.8245 109.435 79.0925 104.144 89.1664 95.7187C107.106 80.7143 114.821 55.7562 103.746 33.0789L99.2536 35.2731C109.179 55.5958 102.394 78.1378 85.9586 91.8833C69.6059 105.56 43.6012 110.519 15.1998 94.9827L12.8002 99.3693Z" fill="#304972"/>
</svg>
